<svg version="1.1" id="Layer_1" xmlns="http://www.w3.org/2000/svg" xmlns:xlink="http://www.w3.org/1999/xlink" x="0px" y="0px"
	 width="100%" viewBox="0 0 512 512" enable-background="new 0 0 512 512" xml:space="preserve">
<path fill="#FFFFFF" opacity="1.000000" stroke="none" 
	d="
M513.000000,281.000000 
	C513.000000,358.298737 513.000000,435.597504 513.000000,512.948120 
	C342.444275,512.948120 171.888519,512.948120 1.000000,512.948120 
	C1.000000,436.645569 1.000000,360.290619 1.401101,283.625305 
	C3.199856,292.785919 4.438487,302.283661 6.026847,311.722534 
	C9.839084,334.376984 17.938080,355.684296 28.186993,376.036896 
	C36.448910,392.443695 45.787235,408.421875 58.538383,421.936188 
	C70.172890,434.266998 81.346489,447.202972 94.141785,458.225555 
	C110.469086,472.290741 128.954849,483.409302 148.702942,492.446777 
	C164.942825,499.878693 181.706512,505.522736 198.944031,509.861420 
	C208.865021,512.358582 214.923508,507.115143 214.926575,496.625854 
	C214.931778,478.807190 214.948990,460.988464 214.918137,443.169861 
	C214.904007,435.012329 210.096420,430.154541 202.041428,430.085114 
	C197.212418,430.043488 192.356552,429.750702 187.558151,430.136078 
	C170.868286,431.476318 157.470901,424.391296 146.597794,412.887177 
	C137.390549,403.145447 129.589722,392.074463 121.406372,381.428345 
	C121.795425,381.141724 121.944611,381.018494 122.455795,380.928589 
	C129.172928,385.631348 135.497910,390.342468 141.889893,394.960907 
	C152.950317,402.952454 165.246902,408.196198 178.771454,409.788666 
	C190.740784,411.197968 201.832535,408.613220 210.095642,396.501007 
	C215.504410,388.572693 214.916824,379.832794 214.913681,371.064392 
	C214.911469,364.907013 211.988831,361.005127 206.123734,359.044403 
	C192.933670,354.634949 179.955658,349.840210 167.909531,342.643555 
	C152.431610,333.396576 138.725266,322.003662 128.284393,307.473938 
	C112.598152,285.644592 104.716568,261.513306 109.799683,234.053650 
	C113.198135,215.694778 120.462341,199.443512 132.874893,185.565445 
	C138.506241,179.269211 143.868240,173.193588 139.923492,163.802948 
	C132.590179,146.345551 134.995682,129.508026 143.209457,113.258781 
	C158.025253,119.258286 170.671387,128.061646 181.308319,139.707123 
	C185.308868,144.087006 189.952347,144.905106 195.517441,143.046463 
	C210.988571,137.879395 226.852066,134.087234 243.119675,133.079849 
	C269.015900,131.476166 294.408447,134.532547 318.993774,143.335571 
	C323.489288,144.945236 328.161102,144.512848 331.679321,140.678528 
	C342.659546,128.711716 355.593292,119.537201 370.732697,113.256485 
	C379.746094,130.184250 380.750519,147.694489 373.840790,165.847122 
	C371.975372,170.747772 372.407440,175.487030 376.354736,179.995148 
	C381.804199,186.218918 387.059113,192.776230 391.336243,199.833740 
	C406.078949,224.160126 409.962921,250.058350 401.232239,277.494202 
	C393.744385,301.024414 378.582275,319.029907 359.506348,333.754089 
	C342.154816,347.147339 322.134155,355.492432 300.968628,360.996063 
	C290.829773,363.632446 288.145142,369.019318 291.978882,378.678619 
	C296.394135,389.803040 299.191345,401.277008 299.125092,413.410461 
	C298.973175,441.238373 299.086304,469.067688 299.072754,496.896454 
	C299.067444,507.764435 306.180725,512.350037 315.264343,509.649994 
	C329.761017,505.340881 344.255951,500.754822 358.233826,495.023102 
	C397.676147,478.849457 430.351898,453.279968 456.894043,420.166534 
	C476.261658,396.003906 490.963165,369.108673 500.287628,339.358978 
	C505.237762,323.565552 509.510345,307.709808 511.023315,291.176514 
	C511.336639,287.752716 512.323547,284.390564 513.000000,281.000000 
z"/>
<path fill="#010202" opacity="1.000000" stroke="none" 
	d="
M513.000000,280.531342 
	C512.323547,284.390564 511.336639,287.752716 511.023315,291.176514 
	C509.510345,307.709808 505.237762,323.565552 500.287628,339.358978 
	C490.963165,369.108673 476.261658,396.003906 456.894043,420.166534 
	C430.351898,453.279968 397.676147,478.849457 358.233826,495.023102 
	C344.255951,500.754822 329.761017,505.340881 315.264343,509.649994 
	C306.180725,512.350037 299.067444,507.764435 299.072754,496.896454 
	C299.086304,469.067688 298.973175,441.238373 299.125092,413.410461 
	C299.191345,401.277008 296.394135,389.803040 291.978882,378.678619 
	C288.145142,369.019318 290.829773,363.632446 300.968628,360.996063 
	C322.134155,355.492432 342.154816,347.147339 359.506348,333.754089 
	C378.582275,319.029907 393.744385,301.024414 401.232239,277.494202 
	C409.962921,250.058350 406.078949,224.160126 391.336243,199.833740 
	C387.059113,192.776230 381.804199,186.218918 376.354736,179.995148 
	C372.407440,175.487030 371.975372,170.747772 373.840790,165.847122 
	C380.750519,147.694489 379.746094,130.184250 370.732697,113.256485 
	C355.593292,119.537201 342.659546,128.711716 331.679321,140.678528 
	C328.161102,144.512848 323.489288,144.945236 318.993774,143.335571 
	C294.408447,134.532547 269.015900,131.476166 243.119675,133.079849 
	C226.852066,134.087234 210.988571,137.879395 195.517441,143.046463 
	C189.952347,144.905106 185.308868,144.087006 181.308319,139.707123 
	C170.671387,128.061646 158.025253,119.258286 143.209457,113.258781 
	C134.995682,129.508026 132.590179,146.345551 139.923492,163.802948 
	C143.868240,173.193588 138.506241,179.269211 132.874893,185.565445 
	C120.462341,199.443512 113.198135,215.694778 109.799683,234.053650 
	C104.716568,261.513306 112.598152,285.644592 128.284393,307.473938 
	C138.725266,322.003662 152.431610,333.396576 167.909531,342.643555 
	C179.955658,349.840210 192.933670,354.634949 206.123734,359.044403 
	C211.988831,361.005127 214.911469,364.907013 214.913681,371.064392 
	C214.916824,379.832794 215.504410,388.572693 210.095642,396.501007 
	C201.832535,408.613220 190.740784,411.197968 178.771454,409.788666 
	C165.246902,408.196198 152.950317,402.952454 141.889893,394.960907 
	C135.497910,390.342468 129.172928,385.631348 122.325890,380.616455 
	C120.994377,380.220673 120.154770,380.170410 118.309273,380.059906 
	C119.876640,380.900208 120.521576,381.245972 121.166504,381.591736 
	C129.589722,392.074463 137.390549,403.145447 146.597794,412.887177 
	C157.470901,424.391296 170.868286,431.476318 187.558151,430.136078 
	C192.356552,429.750702 197.212418,430.043488 202.041428,430.085114 
	C210.096420,430.154541 214.904007,435.012329 214.918137,443.169861 
	C214.948990,460.988464 214.931778,478.807190 214.926575,496.625854 
	C214.923508,507.115143 208.865021,512.358582 198.944031,509.861420 
	C181.706512,505.522736 164.942825,499.878693 148.702942,492.446777 
	C128.954849,483.409302 110.469086,472.290741 94.141785,458.225555 
	C81.346489,447.202972 70.172890,434.266998 58.538383,421.936188 
	C45.787235,408.421875 36.448910,392.443695 28.186993,376.036896 
	C17.938080,355.684296 9.839084,334.376984 6.026847,311.722534 
	C4.438487,302.283661 3.199856,292.785919 1.401101,283.157471 
	C1.000000,268.312439 1.000000,253.624878 1.403076,238.307953 
	C2.870638,229.618271 3.723508,221.523193 5.039555,213.504150 
	C8.885691,190.068588 16.484392,167.820038 26.901457,146.524933 
	C36.316113,127.279007 47.942238,109.496582 62.086792,93.344513 
	C76.096680,77.346222 91.324707,62.756966 108.836136,50.581863 
	C125.358238,39.094616 142.660492,29.000011 161.556290,22.064781 
	C174.125183,17.451679 186.971252,13.390955 199.969788,10.214625 
	C210.625809,7.610713 221.655472,6.385962 232.583710,5.091926 
	C241.855682,3.994012 251.215622,3.230143 260.543793,3.150037 
	C267.529663,3.090046 274.545563,4.201371 281.514648,5.062099 
	C291.499695,6.295316 301.640717,6.990650 311.384857,9.305788 
	C335.153381,14.953033 358.061127,22.947145 379.659332,34.798615 
	C397.058655,44.346066 413.420380,55.305950 427.853455,68.706123 
	C439.278473,79.313538 449.604462,91.225708 459.562195,103.266624 
	C478.531403,126.204224 491.532532,152.533905 500.893005,180.655472 
	C505.992645,195.976318 509.660400,211.668533 511.040771,227.836960 
	C511.304352,230.924561 512.327332,233.947327 513.000000,237.000000 
	C513.000000,251.354233 513.000000,265.708466 513.000000,280.531342 
M192.998505,478.356659 
	C192.998505,469.742859 192.998505,461.129028 192.998505,451.600220 
	C186.451416,451.600220 180.432480,452.190430 174.566193,451.494385 
	C153.245270,448.964600 137.341797,436.811768 124.154984,420.998901 
	C112.333427,406.823242 101.462791,391.854767 90.165123,377.241852 
	C85.776428,371.565308 80.620811,367.226562 73.154251,365.984497 
	C68.262543,365.170807 65.061287,360.687012 65.098450,355.953125 
	C65.135902,351.182251 68.373940,346.872253 73.300545,346.021729 
	C76.494591,345.470306 79.863503,345.734711 83.141129,345.896210 
	C105.750038,347.010315 125.932129,354.739685 144.010925,368.255798 
	C150.395309,373.028870 156.474899,378.561493 163.553497,381.952423 
	C170.254654,385.162598 177.999374,386.565247 185.447037,387.703949 
	C189.763092,388.363831 192.180008,384.624878 192.819351,380.432800 
	C193.448410,376.308075 189.623718,376.678528 187.477737,375.889679 
	C160.431900,365.947571 136.636322,351.121094 117.720299,329.164246 
	C96.494316,304.526123 84.937645,276.331360 86.845284,243.257904 
	C88.417068,216.007263 98.347092,192.272903 115.841515,171.478317 
	C116.942139,170.170059 117.416801,167.528412 116.959984,165.837418 
	C109.891106,139.670578 114.033852,115.763077 130.853958,94.266006 
	C134.324951,89.829887 138.263138,88.466660 143.561584,90.239868 
	C160.828506,96.018555 176.485046,104.619514 189.674774,117.301125 
	C192.454178,119.973457 194.966873,120.147400 198.622955,119.391754 
	C213.237030,116.371315 227.853149,112.690666 242.655457,111.402542 
	C267.008636,109.283279 291.175934,112.004379 314.661530,119.166527 
	C318.856476,120.445816 321.694916,119.847977 324.887756,116.773811 
	C337.824219,104.318153 353.309601,96.019684 370.179352,90.215637 
	C375.674683,88.324966 379.650940,89.847939 383.278748,94.499580 
	C399.949493,115.875244 403.996643,139.638367 397.070892,165.624344 
	C396.586487,167.441895 397.131226,170.258301 398.313141,171.687607 
	C418.788971,196.449188 429.045410,224.543930 427.184937,256.900269 
	C426.007782,277.373016 419.381958,295.948547 408.352783,312.992340 
	C389.699493,341.817993 363.348206,361.121552 331.844513,373.846313 
	C326.661346,375.939850 321.346893,377.708344 316.126343,379.614960 
	C325.063446,414.586914 318.974640,449.900818 321.525635,485.464996 
	C364.641632,472.841003 401.364868,450.583679 430.910553,417.317139 
	C475.025848,367.646179 495.576355,309.330902 490.919189,242.938339 
	C482.573700,123.965530 385.689728,27.600195 261.182434,25.402523 
	C132.577103,23.132515 23.132711,123.936951 22.584265,259.623657 
	C22.114361,375.878906 105.700180,462.549835 192.998505,484.812134 
	C192.998505,482.896881 192.998505,481.101501 192.998505,478.356659 
z"/>
<path fill="#FFFFFF" opacity="1.000000" stroke="none" 
	d="
M513.000000,236.531342 
	C512.327332,233.947327 511.304352,230.924561 511.040771,227.836960 
	C509.660400,211.668533 505.992645,195.976318 500.893005,180.655472 
	C491.532532,152.533905 478.531403,126.204224 459.562195,103.266624 
	C449.604462,91.225708 439.278473,79.313538 427.853455,68.706123 
	C413.420380,55.305950 397.058655,44.346066 379.659332,34.798615 
	C358.061127,22.947145 335.153381,14.953033 311.384857,9.305788 
	C301.640717,6.990650 291.499695,6.295316 281.514648,5.062099 
	C274.545563,4.201371 267.529663,3.090046 260.543793,3.150037 
	C251.215622,3.230143 241.855682,3.994012 232.583710,5.091926 
	C221.655472,6.385962 210.625809,7.610713 199.969788,10.214625 
	C186.971252,13.390955 174.125183,17.451679 161.556290,22.064781 
	C142.660492,29.000011 125.358238,39.094616 108.836136,50.581863 
	C91.324707,62.756966 76.096680,77.346222 62.086792,93.344513 
	C47.942238,109.496582 36.316113,127.279007 26.901457,146.524933 
	C16.484392,167.820038 8.885691,190.068588 5.039555,213.504150 
	C3.723508,221.523193 2.870638,229.618271 1.403076,237.839294 
	C1.000000,159.035080 1.000000,80.070152 1.000000,1.052613 
	C171.555786,1.052613 342.111603,1.052613 513.000000,1.052613 
	C513.000000,79.353912 513.000000,157.708298 513.000000,236.531342 
z"/>
<path fill="#455A64" opacity="1.000000" stroke="none" 
	d="
M192.998505,478.831390 
	C192.998505,481.101501 192.998505,482.896881 192.998505,484.812134 
	C105.700180,462.549835 22.114361,375.878906 22.584265,259.623657 
	C23.132711,123.936951 132.577103,23.132515 261.182434,25.402523 
	C385.689728,27.600195 482.573700,123.965530 490.919189,242.938339 
	C495.576355,309.330902 475.025848,367.646179 430.910553,417.317139 
	C401.364868,450.583679 364.641632,472.841003 321.525635,485.464996 
	C318.974640,449.900818 325.063446,414.586914 316.126343,379.614960 
	C321.346893,377.708344 326.661346,375.939850 331.844513,373.846313 
	C363.348206,361.121552 389.699493,341.817993 408.352783,312.992340 
	C419.381958,295.948547 426.007782,277.373016 427.184937,256.900269 
	C429.045410,224.543930 418.788971,196.449188 398.313141,171.687607 
	C397.131226,170.258301 396.586487,167.441895 397.070892,165.624344 
	C403.996643,139.638367 399.949493,115.875244 383.278748,94.499580 
	C379.650940,89.847939 375.674683,88.324966 370.179352,90.215637 
	C353.309601,96.019684 337.824219,104.318153 324.887756,116.773811 
	C321.694916,119.847977 318.856476,120.445816 314.661530,119.166527 
	C291.175934,112.004379 267.008636,109.283279 242.655457,111.402542 
	C227.853149,112.690666 213.237030,116.371315 198.622955,119.391754 
	C194.966873,120.147400 192.454178,119.973457 189.674774,117.301125 
	C176.485046,104.619514 160.828506,96.018555 143.561584,90.239868 
	C138.263138,88.466660 134.324951,89.829887 130.853958,94.266006 
	C114.033852,115.763077 109.891106,139.670578 116.959984,165.837418 
	C117.416801,167.528412 116.942139,170.170059 115.841515,171.478317 
	C98.347092,192.272903 88.417068,216.007263 86.845284,243.257904 
	C84.937645,276.331360 96.494316,304.526123 117.720299,329.164246 
	C136.636322,351.121094 160.431900,365.947571 187.477737,375.889679 
	C189.623718,376.678528 193.448410,376.308075 192.819351,380.432800 
	C192.180008,384.624878 189.763092,388.363831 185.447037,387.703949 
	C177.999374,386.565247 170.254654,385.162598 163.553497,381.952423 
	C156.474899,378.561493 150.395309,373.028870 144.010925,368.255798 
	C125.932129,354.739685 105.750038,347.010315 83.141129,345.896210 
	C79.863503,345.734711 76.494591,345.470306 73.300545,346.021729 
	C68.373940,346.872253 65.135902,351.182251 65.098450,355.953125 
	C65.061287,360.687012 68.262543,365.170807 73.154251,365.984497 
	C80.620811,367.226562 85.776428,371.565308 90.165123,377.241852 
	C101.462791,391.854767 112.333427,406.823242 124.154984,420.998901 
	C137.341797,436.811768 153.245270,448.964600 174.566193,451.494385 
	C180.432480,452.190430 186.451416,451.600220 192.998505,451.600220 
	C192.998505,461.129028 192.998505,469.742859 192.998505,478.831390 
z"/>
<path fill="#FFFFFF" opacity="1.000000" stroke="none" 
	d="
M121.406372,381.428345 
	C120.521576,381.245972 119.876640,380.900208 118.309273,380.059906 
	C120.154770,380.170410 120.994377,380.220673 121.963898,380.583099 
	C121.944611,381.018494 121.795425,381.141724 121.406372,381.428345 
z"/>
</svg>