<svg version="1.1" id="Layer_1" xmlns="http://www.w3.org/2000/svg" xmlns:xlink="http://www.w3.org/1999/xlink" x="0px" y="0px"
	 width="100%" viewBox="0 0 225 225" enable-background="new 0 0 225 225" xml:space="preserve">
<path fill="#FFFFFF" opacity="1.000000" stroke="none" 
	d="
M149.000000,226.000000 
	C99.333336,226.000000 50.166672,226.000000 1.000007,226.000000 
	C1.000004,151.000000 1.000004,76.000015 1.000002,1.000017 
	C75.999992,1.000011 150.999985,1.000011 225.999969,1.000006 
	C225.999985,75.999985 225.999985,150.999969 226.000000,225.999969 
	C200.500000,226.000000 175.000000,226.000000 149.000000,226.000000 
M36.901394,171.596054 
	C36.901394,171.596054 37.125298,171.966431 37.183212,172.653732 
	C39.801430,174.400101 42.419643,176.146469 45.958458,178.050247 
	C64.046715,178.064423 82.135025,178.112961 100.223213,178.083435 
	C119.799576,178.051483 139.375824,177.946686 159.670761,177.927597 
	C165.050583,176.170929 167.002182,172.321701 166.990509,166.840225 
	C166.914246,131.016510 166.969254,95.192543 166.936432,59.368698 
	C166.928879,51.111732 163.614059,47.827473 155.447617,47.812397 
	C141.284729,47.786247 127.121712,47.779171 112.958862,47.811100 
	C90.970421,47.860668 68.982071,47.949657 46.258556,47.882603 
	C45.518978,47.958172 44.779404,48.033741 43.371628,48.039204 
	C41.861084,49.142155 40.350536,50.245106 38.225082,51.698212 
	C37.742462,52.734928 37.259838,53.771648 36.343613,55.285664 
	C36.343014,55.907001 36.342415,56.528339 36.258713,58.062988 
	C36.300846,95.319229 36.342979,132.575470 36.246487,170.333496 
	C36.431797,170.613922 36.617104,170.894333 36.901394,171.596054 
M183.745255,179.002075 
	C188.869583,177.572601 189.298813,177.157501 190.276550,172.677933 
	C188.635376,172.979767 186.994217,173.281616 185.290131,173.595032 
	C185.801727,170.603897 186.216812,168.176987 186.620987,165.813934 
	C187.767853,166.659042 189.036621,167.593964 190.305374,168.528900 
	C190.569473,168.212143 190.833588,167.895401 191.097702,167.578659 
	C189.123413,165.426422 187.149139,163.274200 184.496490,160.382446 
	C184.213242,162.826096 184.345947,164.219559 183.831497,165.306808 
	C183.428604,166.158325 182.282745,166.752380 181.343582,167.204453 
	C181.019836,167.360306 179.849594,166.667435 179.877563,166.490738 
	C180.017975,165.603821 180.551666,164.781784 180.710770,163.894547 
	C180.913605,162.763443 180.889923,161.591736 181.007614,159.755325 
	C178.945709,160.802292 177.852203,161.567459 176.638260,161.936325 
	C172.217377,163.279633 172.215012,167.265671 172.297806,170.447464 
	C172.408737,174.711273 177.732468,179.992874 180.852432,179.936844 
	C181.574417,179.923874 182.285873,179.326477 183.000000,179.000000 
	C183.000000,179.000000 182.997818,179.002197 183.745255,179.002075 
z"/>
<path fill="#FE585B" opacity="1.000000" stroke="none" 
	d="
M36.385117,169.831711 
	C36.342979,132.575470 36.300846,95.319229 36.484825,57.581955 
	C36.710938,57.100925 37.073414,57.013798 37.357155,56.768780 
	C38.040592,54.798527 38.440292,53.073288 38.839993,51.348053 
	C40.350536,50.245106 41.861084,49.142155 43.895638,48.307575 
	C45.277660,48.391277 46.135674,48.206604 46.993687,48.021935 
	C68.982071,47.949657 90.970421,47.860668 112.958862,47.811100 
	C127.121712,47.779171 141.284729,47.786247 155.447617,47.812397 
	C163.614059,47.827473 166.928879,51.111732 166.936432,59.368698 
	C166.969254,95.192543 166.914246,131.016510 166.990509,166.840225 
	C167.002182,172.321701 165.050583,176.170929 159.004684,177.626953 
	C157.689713,177.218430 157.040848,177.016434 156.391907,177.016144 
	C120.515488,176.999924 84.639069,176.991638 48.762707,177.037170 
	C47.520729,177.038742 46.279457,177.595078 45.037857,177.892838 
	C42.419643,176.146469 39.801430,174.400101 37.361721,172.160828 
	C37.397953,171.106110 37.255676,170.544296 36.933708,169.933289 
	C36.754013,169.884125 36.385117,169.831711 36.385117,169.831711 
M127.348099,127.637444 
	C127.242661,137.411133 127.112961,147.184753 127.085304,156.958664 
	C127.083427,157.623764 127.847916,158.291046 129.160492,158.940201 
	C135.420685,158.638443 141.680893,158.336670 148.558014,157.456009 
	C148.699509,147.014633 148.861725,136.573395 148.937210,126.131538 
	C148.942383,125.415466 148.299057,124.694710 147.745499,123.152946 
	C147.525589,120.836525 147.330719,118.517395 147.081223,116.204163 
	C146.208221,108.110352 144.028931,100.529175 135.705780,97.171112 
	C126.927254,93.629333 118.190918,93.662178 110.292671,99.944969 
	C109.578720,100.512886 108.602875,100.751556 107.425140,101.291428 
	C106.552353,96.783943 103.510582,96.475563 99.961670,96.693695 
	C95.656418,96.958336 91.332092,96.912659 86.411385,97.580261 
	C86.276405,98.222977 86.024292,98.865540 86.023491,99.508423 
	C86.000275,118.145096 85.980537,136.781891 86.050987,155.418320 
	C86.055466,156.603485 86.791878,157.785889 88.100204,158.943314 
	C94.222412,158.945175 100.344612,158.947037 107.262466,158.564850 
	C107.488251,147.924805 107.728676,137.284988 107.897644,126.644035 
	C107.906311,126.098099 107.302185,125.542419 106.843384,124.181404 
	C107.675148,115.724579 111.250114,111.952171 118.340569,112.049194 
	C124.298836,112.130730 127.143570,115.422066 127.548355,123.215965 
	C127.656357,123.468445 127.764359,123.720932 128.056030,124.724983 
	C128.006638,125.493065 127.957253,126.261147 127.348099,127.637444 
M74.804283,158.133469 
	C74.804283,137.746185 74.804283,117.358887 74.804283,97.192978 
	C68.111679,97.192978 62.047359,97.192978 56.017525,97.192978 
	C56.017525,117.902695 56.017525,138.165405 56.017525,158.769577 
	C62.216682,158.769577 68.164513,158.769577 74.804283,158.133469 
M56.080528,83.215157 
	C60.659618,88.174675 65.177628,89.362434 70.203575,86.928040 
	C74.752380,84.724754 77.327492,79.761826 76.400024,75.037354 
	C75.520744,70.558342 72.935684,67.413795 68.589737,66.206032 
	C64.131500,64.967064 59.965134,65.879066 56.852615,69.610405 
	C53.511314,73.616013 53.157150,77.972382 56.080528,83.215157 
M54.256088,157.816376 
	C54.369144,157.974197 54.482197,158.132004 54.595253,158.289825 
	C54.572685,158.069534 54.550117,157.849243 54.256088,157.816376 
M54.512699,98.409042 
	C54.512699,98.409042 54.579113,98.523064 54.512699,98.409042 
z"/>
<path fill="#FAF3F2" opacity="1.000000" stroke="none" 
	d="
M183.002167,178.998016 
	C182.285873,179.326477 181.574417,179.923874 180.852432,179.936844 
	C177.732468,179.992874 172.408737,174.711273 172.297806,170.447464 
	C172.215012,167.265671 172.217377,163.279633 176.638260,161.936325 
	C177.852203,161.567459 178.945709,160.802292 181.007614,159.755325 
	C180.889923,161.591736 180.913605,162.763443 180.710770,163.894547 
	C180.551666,164.781784 180.017975,165.603821 179.877563,166.490738 
	C179.849594,166.667435 181.019836,167.360306 181.343582,167.204453 
	C182.282745,166.752380 183.428604,166.158325 183.831497,165.306808 
	C184.345947,164.219559 184.213242,162.826096 184.496490,160.382446 
	C187.149139,163.274200 189.123413,165.426422 191.097702,167.578659 
	C190.833588,167.895401 190.569473,168.212143 190.305374,168.528900 
	C189.036621,167.593964 187.767853,166.659042 186.620987,165.813934 
	C186.216812,168.176987 185.801727,170.603897 185.290131,173.595032 
	C186.994217,173.281616 188.635376,172.979767 190.279602,172.678894 
	C189.298813,177.157501 188.869583,177.572601 183.368500,178.642456 
	C182.454498,177.232864 181.917252,176.182877 181.380020,175.132889 
	C180.917816,175.482010 180.455627,175.831116 179.993423,176.180222 
	C180.996338,177.119492 181.999252,178.058746 183.002167,178.998016 
M181.184875,171.035812 
	C181.276886,171.440582 181.368896,171.845367 181.460907,172.250137 
	C181.579239,172.160263 181.807266,172.056015 181.797714,171.982880 
	C181.743958,171.572083 181.632965,171.168747 181.184875,171.035812 
M185.409851,163.483749 
	C185.409851,163.483749 185.520676,163.414825 185.409851,163.483749 
z"/>
<path fill="#F64D45" opacity="1.000000" stroke="none" 
	d="
M45.498158,177.971542 
	C46.279457,177.595078 47.520729,177.038742 48.762707,177.037170 
	C84.639069,176.991638 120.515488,176.999924 156.391907,177.016144 
	C157.040848,177.016434 157.689713,177.218430 158.645355,177.599976 
	C139.375824,177.946686 119.799576,178.051483 100.223213,178.083435 
	C82.135025,178.112961 64.046715,178.064423 45.498158,177.971542 
z"/>
<path fill="#FC5350" opacity="1.000000" stroke="none" 
	d="
M38.532539,51.523132 
	C38.440292,53.073288 38.040592,54.798527 37.323586,56.398361 
	C36.929920,55.784767 36.853569,55.296566 36.777214,54.808369 
	C37.259838,53.771648 37.742462,52.734928 38.532539,51.523132 
z"/>
<path fill="#FC484F" opacity="1.000000" stroke="none" 
	d="
M46.626122,47.952271 
	C46.135674,48.206604 45.277660,48.391277 44.229736,48.342628 
	C44.779404,48.033741 45.518978,47.958172 46.626122,47.952271 
z"/>
<path fill="#F39294" opacity="1.000000" stroke="none" 
	d="
M36.560417,55.047016 
	C36.853569,55.296566 36.929920,55.784767 37.039841,56.643379 
	C37.073414,57.013798 36.710938,57.100925 36.526379,57.125301 
	C36.342415,56.528339 36.343014,55.907001 36.560417,55.047016 
z"/>
<path fill="#FC5350" opacity="1.000000" stroke="none" 
	d="
M37.113400,169.982468 
	C37.255676,170.544296 37.397953,171.106110 37.332764,171.817184 
	C37.125298,171.966431 36.901394,171.596054 36.944527,171.091095 
	C37.029572,170.384918 37.071487,170.183685 37.113400,169.982468 
z"/>
<path fill="#F39294" opacity="1.000000" stroke="none" 
	d="
M36.933708,169.933289 
	C37.071487,170.183685 37.029572,170.384918 36.895035,170.880463 
	C36.617104,170.894333 36.431797,170.613922 36.315804,170.082611 
	C36.385117,169.831711 36.754013,169.884125 36.933708,169.933289 
z"/>
<path fill="#FEFBFB" opacity="1.000000" stroke="none" 
	d="
M106.466820,158.948898 
	C100.344612,158.947037 94.222412,158.945175 87.595413,158.491821 
	C87.065742,137.693954 87.040878,117.347603 87.016014,97.001251 
	C91.332092,96.912659 95.656418,96.958336 99.961670,96.693695 
	C103.510582,96.475563 106.552353,96.783943 107.425140,101.291428 
	C108.602875,100.751556 109.578720,100.512886 110.292671,99.944969 
	C118.190918,93.662178 126.927254,93.629333 135.705780,97.171112 
	C144.028931,100.529175 146.208221,108.110352 147.081223,116.204163 
	C147.330719,118.517395 147.525589,120.836525 147.770599,124.029694 
	C147.844147,135.949265 147.892609,146.992081 147.941071,158.034912 
	C141.680893,158.336670 135.420685,158.638443 128.647552,158.486023 
	C128.059021,147.697647 127.983437,137.363434 127.907860,127.029228 
	C127.957253,126.261147 128.006638,125.493065 127.998367,124.112640 
	C127.940712,123.500298 127.834999,123.034180 127.834999,123.034180 
	C127.143570,115.422066 124.298836,112.130730 118.340569,112.049194 
	C111.250114,111.952171 107.675148,115.724579 106.818298,125.047867 
	C106.684410,136.925858 106.575615,147.937378 106.466820,158.948898 
z"/>
<path fill="#FFFEFE" opacity="1.000000" stroke="none" 
	d="
M74.458313,158.451523 
	C68.164513,158.769577 62.216682,158.769577 56.017525,158.769577 
	C56.017525,138.165405 56.017525,117.902695 56.017525,97.192978 
	C62.047359,97.192978 68.111679,97.192978 74.804283,97.192978 
	C74.804283,117.358887 74.804283,137.746185 74.458313,158.451523 
z"/>
<path fill="#FDFBFB" opacity="1.000000" stroke="none" 
	d="
M55.891251,82.879715 
	C53.157150,77.972382 53.511314,73.616013 56.852615,69.610405 
	C59.965134,65.879066 64.131500,64.967064 68.589737,66.206032 
	C72.935684,67.413795 75.520744,70.558342 76.400024,75.037354 
	C77.327492,79.761826 74.752380,84.724754 70.203575,86.928040 
	C65.177628,89.362434 60.659618,88.174675 55.891251,82.879715 
z"/>
<path fill="#F54C4D" opacity="1.000000" stroke="none" 
	d="
M86.713699,97.290756 
	C87.040878,117.347603 87.065742,137.693954 87.139206,158.504944 
	C86.791878,157.785889 86.055466,156.603485 86.050987,155.418320 
	C85.980537,136.781891 86.000275,118.145096 86.023491,99.508423 
	C86.024292,98.865540 86.276405,98.222977 86.713699,97.290756 
z"/>
<path fill="#F6484E" opacity="1.000000" stroke="none" 
	d="
M148.249542,157.745453 
	C147.892609,146.992081 147.844147,135.949265 147.876511,124.441284 
	C148.299057,124.694710 148.942383,125.415466 148.937210,126.131538 
	C148.861725,136.573395 148.699509,147.014633 148.249542,157.745453 
z"/>
<path fill="#F54C4D" opacity="1.000000" stroke="none" 
	d="
M106.864639,158.756866 
	C106.575615,147.937378 106.684410,136.925858 106.888290,125.452805 
	C107.302185,125.542419 107.906311,126.098099 107.897644,126.644035 
	C107.728676,137.284988 107.488251,147.924805 106.864639,158.756866 
z"/>
<path fill="#F6484E" opacity="1.000000" stroke="none" 
	d="
M127.627975,127.333336 
	C127.983437,137.363434 128.059021,147.697647 128.195282,158.494583 
	C127.847916,158.291046 127.083427,157.623764 127.085304,156.958664 
	C127.112961,147.184753 127.242661,137.411133 127.627975,127.333336 
z"/>
<path fill="#FC5351" opacity="1.000000" stroke="none" 
	d="
M54.391823,157.722656 
	C54.550117,157.849243 54.572685,158.069534 54.595253,158.289825 
	C54.482197,158.132004 54.369144,157.974197 54.391823,157.722656 
z"/>
<path fill="#FC5351" opacity="1.000000" stroke="none" 
	d="
M54.545906,98.466049 
	C54.579113,98.523064 54.512699,98.409042 54.545906,98.466049 
z"/>
<path fill="#F6484E" opacity="1.000000" stroke="none" 
	d="
M127.691681,123.125076 
	C127.834999,123.034180 127.940712,123.500298 127.906532,123.736855 
	C127.764359,123.720932 127.656357,123.468445 127.691681,123.125076 
z"/>
<path fill="#FFFFFF" opacity="1.000000" stroke="none" 
	d="
M183.001083,178.998993 
	C181.999252,178.058746 180.996338,177.119492 179.993423,176.180222 
	C180.455627,175.831116 180.917816,175.482010 181.380020,175.132889 
	C181.917252,176.182877 182.454498,177.232864 182.994781,178.642517 
	C182.997818,179.002197 183.000000,179.000000 183.001083,178.998993 
z"/>
<path fill="#FFFFFF" opacity="1.000000" stroke="none" 
	d="
M181.363190,170.899353 
	C181.632965,171.168747 181.743958,171.572083 181.797714,171.982880 
	C181.807266,172.056015 181.579239,172.160263 181.460907,172.250137 
	C181.368896,171.845367 181.276886,171.440582 181.363190,170.899353 
z"/>
<path fill="#FFFFFF" opacity="1.000000" stroke="none" 
	d="
M185.465271,163.449280 
	C185.520676,163.414825 185.409851,163.483749 185.465271,163.449280 
z"/>
</svg>